<svg width="17" height="21" viewBox="0 0 17 21" fill="none" xmlns="http://www.w3.org/2000/svg">
<path d="M8.954 10.068L11.911 6.74141L2.36 0.702411C1.727 0.317661 1.134 0.263661 0.614 0.684411L8.954 10.068ZM12.415 13.9628L15.489 12.0177C16.089 11.6397 16.418 11.1042 16.418 10.5102C16.418 9.91729 16.089 9.38066 15.49 9.00266L12.707 7.24429L9.574 10.7678L12.415 13.9628ZM0.0999999 1.50229C0.0359999 1.72391 0 1.97141 0 2.24254V18.7857C0 19.2143 0.0840001 19.5833 0.236 19.8769L8.333 10.7667L0.0999999 1.50229ZM8.954 11.4642L0.902 20.5238C1.056 20.5902 1.222 20.625 1.397 20.625C1.709 20.625 2.034 20.5215 2.365 20.3145L11.62 14.4679L8.954 11.4642Z" fill="white"/>
</svg>
